# xmcd
#
# Track frame offsets:
#	150
#	14451
#	28296
#	46302
#	67445
#	83116
#	99916
#	121396
#	135505
#	155084
#	173141
#	184118
#
# Disc length: 2622 seconds
#
# Revision: 0
# Processed by: cddbd v1.5.2PL0 Copyright (c) Steve Scherf et al.
# Submitted via: dBpowerAMP V4.0
#
DISCID=a40a3c0c
DTITLE=Chris Randall - The Devil His Due
DYEAR=2007
DGENRE=Blues
TTITLE0=Judas Iscariot
TTITLE1=Two Trains Comin'
TTITLE2=The Devil His Due
TTITLE3=Sin Eater
TTITLE4=When The Circus Comes to Town
TTITLE5=Automatic Jack
TTITLE6=St. James Infirmary Blues
TTITLE7=Be There Tonight
TTITLE8=I'll Take the Bottle
TTITLE9=Baron Samedi
TTITLE10=Up Jumped the Devil
TTITLE11=It's All The Same In The Nighttime
EXTD=Released by Positron! Records 2007
EXTT0=
EXTT1=
EXTT2=
EXTT3=
EXTT4=
EXTT5=
EXTT6=
EXTT7=
EXTT8=
EXTT9=
EXTT10=
EXTT11=
PLAYORDER=
